/* XPM */
static char * ball_xpm[] = {
"32 32 177 2",
"  	c None",
". 	c #81FF06",
"+ 	c #64C305",
"@ 	c #65C406",
"# 	c #65C507",
"$ 	c #66C508",
"% 	c #67C609",
"& 	c #67C608",
"* 	c #66C507",
"= 	c #64C307",
"- 	c #63C205",
"; 	c #64C306",
"> 	c #68C60A",
", 	c #69C70C",
"' 	c #6AC90D",
") 	c #6BC90D",
"! 	c #6BCA0E",
"~ 	c #6CCA0E",
"{ 	c #6BC90E",
"] 	c #69C80C",
"^ 	c #68C70A",
"/ 	c #63C305",
"( 	c #69C70B",
"_ 	c #6CCA0F",
": 	c #6ECC11",
"< 	c #6FCD12",
"[ 	c #6FCD13",
"} 	c #70CE13",
"| 	c #6ECB11",
"1 	c #6DCA0F",
"2 	c #64C405",
"3 	c #6AC80D",
"4 	c #6DCB0F",
"5 	c #6FCC12",
"6 	c #71CE14",
"7 	c #72CF16",
"8 	c #73D117",
"9 	c #74D118",
"0 	c #75D219",
"a 	c #75D119",
"b 	c #74D018",
"c 	c #72D016",
"d 	c #68C609",
"e 	c #64C406",
"f 	c #61C103",
"g 	c #65C407",
"h 	c #73D017",
"i 	c #75D21A",
"j 	c #77D31B",
"k 	c #78D41C",
"l 	c #79D51E",
"m 	c #79D61E",
"n 	c #7AD61E",
"o 	c #78D51D",
"p 	c #77D41B",
"q 	c #73D018",
"r 	c #72CF15",
"s 	c #75D218",
"t 	c #77D41C",
"u 	c #7CD721",
"v 	c #7DD922",
"w 	c #7DD923",
"x 	c #7ED924",
"y 	c #7FD924",
"z 	c #7CD822",
"A 	c #7BD720",
"B 	c #79D51F",
"C 	c #71CF15",
"D 	c #78D41D",
"E 	c #7BD620",
"F 	c #7ED923",
"G 	c #7FDB25",
"H 	c #82DC27",
"I 	c #82DD28",
"J 	c #83DE29",
"K 	c #83DD28",
"L 	c #81DC27",
"M 	c #80DB26",
"N 	c #67C60A",
"O 	c #79D51D",
"P 	c #7BD821",
"Q 	c #7FDA24",
"R 	c #81DC28",
"S 	c #84DF2A",
"T 	c #86E02C",
"U 	c #87E12D",
"V 	c #88E12E",
"W 	c #84DE2A",
"X 	c #6AC90C",
"Y 	c #62C204",
"Z 	c #7FDA25",
"` 	c #88E22F",
" .	c #8AE331",
"..	c #8BE533",
"+.	c #8CE533",
"@.	c #8DE634",
"#.	c #8AE431",
"$.	c #85E02C",
"%.	c #82DD29",
"&.	c #75D118",
"*.	c #6CCA10",
"=.	c #89E330",
"-.	c #8CE634",
";.	c #8FE736",
">.	c #90E938",
",.	c #91E939",
"'.	c #90E939",
").	c #90E838",
"!.	c #8EE736",
"~.	c #8CE633",
"{.	c #7EDA24",
"].	c #77D31C",
"^.	c #62C104",
"/.	c #8FE837",
"(.	c #93EB3B",
"_.	c #94EC3E",
":.	c #96EE3E",
"<.	c #95ED3E",
"[.	c #95ED3D",
"}.	c #92EB3B",
"|.	c #8FE838",
"1.	c #8CE534",
"2.	c #85DF2C",
"3.	c #75D11A",
"4.	c #68C70B",
"5.	c #60C001",
"6.	c #96EE40",
"7.	c #99F042",
"8.	c #9AF143",
"9.	c #9AF244",
"0.	c #99F043",
"a.	c #96EE3F",
"b.	c #90E837",
"c.	c #99F143",
"d.	c #9DF447",
"e.	c #9FF549",
"f.	c #7DD822",
"g.	c #A0F74B",
"h.	c #A3F94E",
"i.	c #95EC3D",
"j.	c #A8FD53",
"k.	c #A7FD53",
"l.	c #A3F94D",
"m.	c #96ED3E",
"n.	c #91EA39",
"o.	c #88E22E",
"p.	c #83DD29",
"q.	c #7EDA23",
"r.	c #70CD14",
"s.	c #67C509",
"t.	c #A7FC52",
"u.	c #95EE3E",
"v.	c #8DE534",
"w.	c #7FDA23",
"x.	c #7AD51E",
"y.	c #9CF346",
"z.	c #94EC3D",
"A.	c #8CE433",
"B.	c #87E12E",
"C.	c #97EE3F",
"D.	c #8FE836",
"E.	c #86E02D",
"F.	c #74D117",
"G.	c #7BD721",
"H.	c #73CF16",
"I.	c #7AD51F",
"J.	c #6FCC13",
"K.	c #61C102",
"L.	c #74D119",
"M.	c #6ECC12",
"N.	c #65C306",
"O.	c #6DCA10",
"P.	c #61C002",
"Q.	c #60C002",
"R.	c #6AC80C",
"S.	c #5FC002",
"T.	c #62C103",
"                      . . . . . . . . . .                       ",
"                  . . + @ # $ % & $ * = - . .                   ",
"              . . ; $ > , ' ) ! ~ { ) ] ^ $ ; . .               ",
"            . / $ ( ) _ : < [ } } [ < | 1 ) ( $ / .             ",
"        . . 2 % 3 4 5 6 7 8 9 0 a 9 b c 6 < 4 3 d e .           ",
"      . f g > ! : 6 h i j k l m n l o p 0 q 6 : ) > e .         ",
"      . 2 > ! : r s t l u v w x y w z A B p 0 C 5 ! ^ e .       ",
"    . - % ! : 7 0 D E F G H I J K I L M F A D 0 C 5 { N + .     ",
"    . $ 3 : r 0 O P Q R S T U V V U T W R Q u o 0 C : X $ Y .   ",
"  . ; ( 4 6 s D P Z I T `  ...+.@.+.#.` $.%.Q u o &.6 *.( ; .   ",
"  . $ ) 5 h t E Q I T =.-.;.>.,.'.).!.~.=.$.%.{.A ].h 5 ) $ ^.. ",
"  . > _ 6 i l F R T =.-./.(._.:.<.[.}.|.1.=.2.I w l 3.6 _ 4.+ . ",
"5.. , : 7 j u G S ` -./.(.6.7.8.9.0.a.(.b.+.` W G A p 7 | ] @ . ",
". # ' < 8 k v H T  .!.(.6.c.d.e.e.d.c.a.}.!.#.T H f.o h < ' g . ",
". $ ) [ 9 l w I U ..>._.7.d.g.h.h.g.d.7.i.)...U I w l 9 [ { $ . ",
". % ! } 0 m x J V +.,.:.8.e.h.j.k.l.e.9.m.n.-.o.p.q.m 0 r.! s.. ",
". & ~ } a n y K V @.'.<.9.e.h.k.t.h.e.8.u.'.v.o.p.w.x.s r.~ s.. ",
". $ { [ 9 l w I U +.).[.0.d.g.l.h.g.y.0.z.>.A.B.I w l 9 < { $ . ",
". * ) < b o z L T #.!.}.a.c.d.e.e.y.c.C.(.D. .E.L z D F.5 ) $ . ",
". = ] | 7 j A M W ` ~.|.(.a.7.9.8.0.C.(./.1.` W M G.j H.: ( g . ",
"  . ^ 1 6 i B F R $.=.1.).}.i.m.u.i.}./.-.=.2.H w I.i 6 _ > .   ",
"  . $ ) < h p E Q %.$.=.1.!.).n.'.>.D.1.=.T I G A ].q J.) $ .   ",
"  K.. ( 4 6 0 D u Q %.2.` #...-.v.A. .` 2.I G A o L.6 4 ( e .   ",
"    . $ 3 : C 0 o u {.I W T U o.o.B.E.W H G A O a r : ' $ .     ",
"    f . d ) 5 C 0 o A w G H I p.p.I L M w A o a 7 M.{ % + .     ",
"      . e > ! 5 C &.].m A f.w q.w.w z G.I.].L.r M.{ > ; .       ",
"        . . ^ { : 6 h i p o l m x.l D j i q 6 : { > N..         ",
"          f . N X O.J.6 7 h 9 0 s 9 F.H.6 J.4 ' % . .           ",
"            P.. . ( ) _ | < [ r.r.< 5 : _ ) ( $ . f             ",
"              Q.Y . . 4.R.' { ! ~ { ) ( > $ . . S.              ",
"                  P.^.. . . . s.s.$ $ . . . K.                  ",
"                        T.T.T.. . . . f                         "};
